<svg xmlns="http://www.w3.org/2000/svg" xmlns:xlink="http://www.w3.org/1999/xlink" viewBox="0 0 256 256"><defs><style>.cls-1{fill:#f9e0cf;}.cls-2,.cls-3{fill:#ff791a;}.cls-3{font-size:38.89px;font-family:OpenSans-ExtraBold, Open Sans;font-weight:700;}.cls-4,.cls-5{fill:#d61d1d;}.cls-5{font-size:45.81px;font-family:BharatVani-Wide-Font-Regular, BharatVani Wide Font;}.cls-6{fill:url(#linear-gradient);}</style><linearGradient id="linear-gradient" x1="58.43" y1="179.5" x2="101.41" y2="179.5" gradientUnits="userSpaceOnUse"><stop offset="0.18" stop-color="#ff931e"/><stop offset="1" stop-color="#ff1d25"/></linearGradient></defs><title>icon</title><g id="Layer_1" data-name="Layer 1"><rect class="cls-1" width="256" height="256"/><path class="cls-2" d="M118.38,40.39v73l-8.89,8.89h-73V40.39h81.88m.54-4H36a3.46,3.46,0,0,0-3.46,3.46v83A3.46,3.46,0,0,0,36,126.27h75.19L122.38,115V39.85a3.46,3.46,0,0,0-3.46-3.46Z"/><path class="cls-2" d="M122.38,113.31l-13,13v-9a4,4,0,0,1,4-4Z"/><rect class="cls-2" x="35.96" y="39.85" width="82.97" height="22.47"/><text class="cls-3" transform="translate(64.19 104.09)">1</text><path class="cls-4" d="M219.5,133.73v73l-8.89,8.89h-73V133.73H219.5m.54-4h-83a3.46,3.46,0,0,0-3.46,3.46v83a3.46,3.46,0,0,0,3.46,3.46h75.19l11.24-11.24V133.19a3.46,3.46,0,0,0-3.46-3.46Z"/><path class="cls-4" d="M223.5,206.65l-13,13v-9a4,4,0,0,1,4-4Z"/><rect class="cls-4" x="137.07" y="133.19" width="82.97" height="22.47"/><rect class="cls-4" x="176.83" y="126.27" width="3.46" height="6.05" rx="1.73" ry="1.73"/><rect class="cls-4" x="158.68" y="126.27" width="3.46" height="6.05" rx="1.73" ry="1.73"/><rect class="cls-4" x="140.53" y="126.27" width="3.46" height="6.05" rx="1.73" ry="1.73"/><rect class="cls-4" x="195.84" y="126.27" width="3.46" height="6.05" rx="1.73" ry="1.73"/><rect class="cls-4" x="213.13" y="126.27" width="3.46" height="6.05" rx="1.73" ry="1.73"/><text class="cls-5" transform="translate(165.31 197.43)">1</text><path class="cls-6" d="M100.49,191.31,90.08,201.72a2.59,2.59,0,0,1-3.66,0,2.59,2.59,0,0,1,0-3.66l6.1-6.1H61a2.59,2.59,0,0,1-2.59-2.59V159.11a2.59,2.59,0,1,1,5.19,0v27.66H93.08L87,180.67A2.59,2.59,0,1,1,90.63,177l9.86,9.86A3.14,3.14,0,0,1,100.49,191.31Z"/></g></svg>